<mxfile host="app.diagrams.net" agent="Mozilla/5.0 (Windows NT 10.0; Win64; x64) AppleWebKit/537.36 (KHTML, like Gecko) Chrome/141.0.0.0 Safari/537.36" version="28.2.4">
  <diagram name="Pagina-1" id="x8TMiMxILTmxM5gxJRtz">
    <mxGraphModel dx="411" dy="219" grid="1" gridSize="10" guides="1" tooltips="1" connect="1" arrows="1" fold="1" page="1" pageScale="1" pageWidth="827" pageHeight="1169" math="1" shadow="0">
      <root>
        <mxCell id="0" />
        <mxCell id="1" parent="0" />
        <mxCell id="P_CtXelBGgY91PehvYw_-13" style="edgeStyle=orthogonalEdgeStyle;rounded=0;orthogonalLoop=1;jettySize=auto;html=1;" edge="1" parent="1" source="P_CtXelBGgY91PehvYw_-1">
          <mxGeometry relative="1" as="geometry">
            <mxPoint x="490" y="280" as="targetPoint" />
          </mxGeometry>
        </mxCell>
        <mxCell id="P_CtXelBGgY91PehvYw_-14" value="\(i_a\)" style="edgeLabel;html=1;align=center;verticalAlign=middle;resizable=0;points=[];" vertex="1" connectable="0" parent="P_CtXelBGgY91PehvYw_-13">
          <mxGeometry x="-0.048" y="1" relative="1" as="geometry">
            <mxPoint as="offset" />
          </mxGeometry>
        </mxCell>
        <mxCell id="P_CtXelBGgY91PehvYw_-1" value="\(\frac{1}{sL_a+R_a}\)" style="rounded=0;whiteSpace=wrap;html=1;fillColor=none;" vertex="1" parent="1">
          <mxGeometry x="350" y="260" width="70" height="40" as="geometry" />
        </mxCell>
        <mxCell id="P_CtXelBGgY91PehvYw_-3" style="edgeStyle=orthogonalEdgeStyle;rounded=0;orthogonalLoop=1;jettySize=auto;html=1;entryX=0;entryY=0.5;entryDx=0;entryDy=0;" edge="1" parent="1" source="P_CtXelBGgY91PehvYw_-2" target="P_CtXelBGgY91PehvYw_-1">
          <mxGeometry relative="1" as="geometry" />
        </mxCell>
        <mxCell id="P_CtXelBGgY91PehvYw_-2" value="" style="ellipse;whiteSpace=wrap;html=1;aspect=fixed;fillColor=none;" vertex="1" parent="1">
          <mxGeometry x="270" y="270" width="20" height="20" as="geometry" />
        </mxCell>
        <mxCell id="P_CtXelBGgY91PehvYw_-4" value="" style="endArrow=classic;html=1;rounded=0;" edge="1" parent="1">
          <mxGeometry width="50" height="50" relative="1" as="geometry">
            <mxPoint x="360" y="330" as="sourcePoint" />
            <mxPoint x="280" y="290" as="targetPoint" />
            <Array as="points">
              <mxPoint x="280" y="330" />
            </Array>
          </mxGeometry>
        </mxCell>
        <mxCell id="P_CtXelBGgY91PehvYw_-8" value="\(v_{emf}\)" style="edgeLabel;html=1;align=center;verticalAlign=middle;resizable=0;points=[];" vertex="1" connectable="0" parent="P_CtXelBGgY91PehvYw_-4">
          <mxGeometry x="-0.1953" y="1" relative="1" as="geometry">
            <mxPoint as="offset" />
          </mxGeometry>
        </mxCell>
        <mxCell id="P_CtXelBGgY91PehvYw_-5" value="\(k_v\)" style="rounded=0;whiteSpace=wrap;html=1;fillColor=none;" vertex="1" parent="1">
          <mxGeometry x="360" y="320" width="30" height="20" as="geometry" />
        </mxCell>
        <mxCell id="P_CtXelBGgY91PehvYw_-6" value="" style="endArrow=classic;html=1;rounded=0;" edge="1" parent="1">
          <mxGeometry width="50" height="50" relative="1" as="geometry">
            <mxPoint x="450" y="330" as="sourcePoint" />
            <mxPoint x="390" y="330" as="targetPoint" />
          </mxGeometry>
        </mxCell>
        <mxCell id="P_CtXelBGgY91PehvYw_-7" value="\(k_t\omega\)" style="edgeLabel;html=1;align=center;verticalAlign=middle;resizable=0;points=[];" vertex="1" connectable="0" parent="P_CtXelBGgY91PehvYw_-6">
          <mxGeometry x="-0.044" y="-1" relative="1" as="geometry">
            <mxPoint as="offset" />
          </mxGeometry>
        </mxCell>
        <mxCell id="P_CtXelBGgY91PehvYw_-9" value="\(-\)" style="text;html=1;align=center;verticalAlign=middle;whiteSpace=wrap;rounded=0;" vertex="1" parent="1">
          <mxGeometry x="290" y="290" width="20" height="20" as="geometry" />
        </mxCell>
        <mxCell id="P_CtXelBGgY91PehvYw_-10" value="\(+\)" style="text;html=1;align=center;verticalAlign=middle;whiteSpace=wrap;rounded=0;" vertex="1" parent="1">
          <mxGeometry x="250" y="250" width="20" height="20" as="geometry" />
        </mxCell>
        <mxCell id="P_CtXelBGgY91PehvYw_-11" value="" style="endArrow=classic;html=1;rounded=0;" edge="1" parent="1">
          <mxGeometry width="50" height="50" relative="1" as="geometry">
            <mxPoint x="190" y="280" as="sourcePoint" />
            <mxPoint x="270" y="280" as="targetPoint" />
          </mxGeometry>
        </mxCell>
        <mxCell id="P_CtXelBGgY91PehvYw_-12" value="\(v_a\)" style="edgeLabel;html=1;align=center;verticalAlign=middle;resizable=0;points=[];" vertex="1" connectable="0" parent="P_CtXelBGgY91PehvYw_-11">
          <mxGeometry x="-0.127" y="1" relative="1" as="geometry">
            <mxPoint as="offset" />
          </mxGeometry>
        </mxCell>
      </root>
    </mxGraphModel>
  </diagram>
</mxfile>
